<?xml version="1.0" standalone="no"?>
<!DOCTYPE svg PUBLIC "-//W3C//DTD SVG 20010904//EN"
 "http://www.w3.org/TR/2001/REC-SVG-20010904/DTD/svg10.dtd">
<svg version="1.0" xmlns="http://www.w3.org/2000/svg"
 width="102.000000pt" height="75.000000pt" viewBox="0 0 102.000000 75.000000"
 preserveAspectRatio="xMidYMid meet">
<metadata>
Created by potrace 1.10, written by Peter Selinger 2001-2011
</metadata>
<g transform="translate(0.000000,75.000000) scale(0.100000,-0.100000)"
fill="#000000" stroke="none">
<path d="M398 679 c-10 -5 -22 -28 -28 -49 l-11 -40 -68 0 c-55 0 -74 -4 -96
-22 -47 -37 -55 -72 -55 -243 0 -171 8 -206 55 -243 27 -21 35 -22 320 -22
285 0 293 1 320 22 47 37 55 72 55 243 0 171 -8 206 -55 243 -22 18 -41 22
-96 22 l-68 0 -11 40 c-6 22 -19 44 -30 50 -24 13 -210 13 -232 -1z m202 -69
c0 -18 -7 -20 -85 -20 -64 0 -85 3 -85 13 0 24 12 27 92 27 71 0 78 -2 78 -20z
m190 -93 c20 -10 26 -21 28 -55 l3 -42 -111 0 c-103 0 -113 2 -130 22 -23 29
-106 28 -132 -2 -14 -18 -29 -20 -128 -20 l-111 0 3 42 c2 34 8 45 28 55 35
18 515 18 550 0z m-308 -126 c-14 -23 -21 -28 -30 -19 -18 18 -15 26 16 42 35
18 37 15 14 -23z m108 -1 c0 -3 -7 -13 -14 -23 -13 -16 -15 -15 -27 15 -7 18
-15 37 -17 42 -3 5 10 0 27 -10 17 -10 31 -21 31 -24z m-384 9 c3 -6 -1 -18
-10 -27 -15 -15 -16 -14 -16 11 0 27 13 36 26 16z m644 -16 c0 -25 -1 -26 -16
-11 -9 9 -13 21 -10 27 13 20 26 11 26 -16z m-320 -18 c0 -24 -5 -35 -15 -35
-10 0 -15 11 -15 35 0 24 5 35 15 35 10 0 15 -11 15 -35z m-90 -34 c0 -42 24
-61 75 -61 51 0 75 19 75 61 l0 29 115 0 115 0 0 -103 c0 -67 -4 -107 -12
-115 -17 -17 -569 -17 -586 0 -8 8 -12 48 -12 115 l0 103 115 0 115 0 0 -29z"/>
</g>
</svg>
