<?xml version="1.0" standalone="no"?>
<!DOCTYPE svg PUBLIC "-//W3C//DTD SVG 20010904//EN"
 "http://www.w3.org/TR/2001/REC-SVG-20010904/DTD/svg10.dtd">
<svg version="1.0" xmlns="http://www.w3.org/2000/svg"
 width="136.000000pt" height="129.000000pt" viewBox="0 0 136.000000 129.000000"
 preserveAspectRatio="xMidYMid meet">
<metadata>
Created by potrace 1.10, written by Peter Selinger 2001-2011
</metadata>
<g transform="translate(0.000000,129.000000) scale(0.100000,-0.100000)"
fill="#494FC9" stroke="red">
<path d="M215 1138 c-52 -37 -81 -77 -72 -102 10 -25 31 -19 73 22 22 20 52
46 67 57 20 14 27 25 22 38 -10 25 -37 21 -90 -15z"/>
<path d="M790 1093 c-15 -3 -71 -51 -143 -124 -65 -65 -120 -119 -122 -119 -3
0 -5 10 -5 22 0 33 -47 106 -80 123 -60 31 -137 10 -165 -45 -12 -24 -14 -49
-9 -123 6 -83 4 -107 -21 -202 -46 -179 -23 -282 91 -404 95 -103 228 -152
352 -130 103 19 156 55 312 213 79 81 150 156 157 169 27 49 4 139 -40 153
-17 5 -16 9 11 37 38 41 52 69 52 104 0 32 -33 91 -55 99 -11 5 -13 16 -9 48
14 96 -74 164 -161 124 -23 -10 -28 -9 -42 11 -14 21 -72 53 -90 50 -4 -1 -19
-4 -33 -6z m58 -79 c40 -28 28 -52 -83 -164 -104 -107 -125 -143 -89 -157 11
-4 59 37 163 141 144 144 171 162 199 134 29 -29 11 -57 -129 -202 -141 -146
-160 -177 -113 -184 16 -2 48 26 129 112 85 92 113 116 134 116 32 0 51 -16
51 -43 0 -10 -57 -79 -127 -153 -71 -74 -128 -143 -128 -152 0 -39 38 -23 110
47 76 74 93 82 119 55 34 -34 20 -56 -137 -211 -174 -173 -209 -195 -317 -196
-89 0 -172 37 -239 107 -78 84 -96 126 -95 226 1 58 7 99 19 130 15 35 19 72
20 172 0 80 4 131 11 138 6 6 24 10 40 8 44 -5 74 -65 74 -150 0 -54 5 -74 24
-103 44 -64 51 -150 18 -212 -15 -27 -6 -53 19 -53 12 0 26 15 40 42 29 58 23
165 -13 230 l-25 45 141 146 c78 81 146 147 151 147 6 0 21 -7 33 -16z m57 6
c3 -5 15 -10 26 -10 23 0 24 -13 3 -34 -23 -23 -48 -21 -41 4 3 11 1 23 -4 26
-12 7 -12 24 0 24 6 0 13 -4 16 -10z m192 -155 c11 -24 10 -25 -23 -25 -38 0
-41 5 -17 32 21 24 26 23 40 -7z m-542 -37 c5 4 -5 -10 -20 -30 -16 -20 -33
-34 -37 -32 -4 3 -8 25 -8 50 l0 45 29 -20 c15 -11 32 -17 36 -13z m535 -187
c0 -11 2 -26 5 -34 5 -10 -1 -13 -25 -9 -21 3 -30 10 -30 23 0 11 7 19 15 19
8 0 15 5 15 10 0 6 5 10 10 10 6 0 10 -9 10 -19z"/>
<path d="M1141 190 c-17 -22 -45 -47 -61 -55 -32 -16 -41 -52 -16 -61 20 -8
66 18 102 58 54 59 58 66 44 83 -19 23 -34 18 -69 -25z"/>
</g>
</svg>
