<?xml version="1.0" standalone="no"?>
<!DOCTYPE svg PUBLIC "-//W3C//DTD SVG 20010904//EN"
 "http://www.w3.org/TR/2001/REC-SVG-20010904/DTD/svg10.dtd">
<svg version="1.0" xmlns="http://www.w3.org/2000/svg"
 width="160.000000pt" height="141.000000pt" viewBox="0 0 160.000000 141.000000"
 preserveAspectRatio="xMidYMid meet">
<metadata>
Created by potrace 1.10, written by Peter Selinger 2001-2011
</metadata>
<g transform="translate(0.000000,141.000000) scale(0.100000,-0.100000)"
fill="#494FC9" stroke="none">
<path d="M800 1308 c-37 -19 -62 -48 -143 -163 -55 -77 -105 -149 -113 -159
-12 -18 -15 -18 -31 -4 -52 45 -137 61 -200 37 -40 -15 -82 -57 -104 -104 -17
-36 -19 -69 -19 -340 0 -271 2 -304 19 -340 60 -131 240 -154 324 -43 l27 34
89 -22 c126 -32 283 -54 385 -54 72 0 95 4 134 24 99 51 204 200 260 368 62
186 52 291 -35 388 -70 78 -144 110 -251 110 l-82 0 6 69 c6 59 4 76 -16 116
-45 92 -159 130 -250 83z m121 -18 c78 -22 119 -85 119 -183 0 -46 4 -68 15
-77 9 -7 50 -16 93 -20 42 -4 94 -14 114 -23 91 -38 162 -128 174 -220 6 -42
-16 -177 -36 -216 -4 -9 -23 -49 -41 -90 -61 -133 -127 -213 -214 -260 -46
-24 -161 -29 -275 -10 -36 5 -78 12 -95 15 -16 2 -67 14 -113 25 -45 12 -92
18 -105 15 -12 -3 -41 -24 -64 -45 -76 -70 -158 -68 -222 5 -21 24 -41 58 -45
75 -11 57 -7 564 5 600 22 66 92 119 156 119 15 0 50 -11 77 -25 82 -42 83
-41 187 105 122 173 136 188 184 205 49 17 43 17 86 5z"/>
<path d="M845 1208 c-25 -15 -35 -25 -65 -68 -13 -19 -28 -39 -33 -45 -41 -48
-189 -278 -197 -305 -15 -52 -13 -389 3 -420 13 -26 61 -55 112 -65 130 -28
235 -43 315 -45 137 -4 136 -5 193 53 69 69 76 80 114 162 48 105 71 187 71
257 0 72 -12 100 -60 143 -59 53 -76 59 -206 64 -94 5 -125 10 -132 21 -5 8
-7 59 -3 116 l6 100 -28 22 c-31 24 -60 27 -90 10z m78 -38 c11 -16 11 -34 0
-112 -12 -86 -11 -95 6 -118 17 -24 24 -25 147 -30 136 -6 168 -15 210 -62 34
-37 44 -63 44 -116 0 -137 -128 -390 -223 -438 -53 -28 -255 -4 -489 57 l-38
10 0 220 0 220 137 194 c121 172 140 195 165 195 15 0 33 -8 41 -20z"/>
<path d="M344 908 c-41 -19 -44 -46 -44 -339 l0 -281 29 -29 c35 -35 70 -37
106 -6 37 31 43 101 36 385 l-6 234 -28 24 c-30 25 -58 29 -93 12z m74 -24
c22 -15 22 -17 22 -308 0 -318 0 -318 -55 -319 -55 0 -55 1 -55 319 0 291 0
293 22 308 12 9 27 16 33 16 6 0 21 -7 33 -16z"/>
</g>
</svg>
