<?xml version="1.0" standalone="no"?>
<!DOCTYPE svg PUBLIC "-//W3C//DTD SVG 20010904//EN"
 "http://www.w3.org/TR/2001/REC-SVG-20010904/DTD/svg10.dtd">
<svg version="1.0" xmlns="http://www.w3.org/2000/svg"
 width="92.000000pt" height="91.000000pt" viewBox="0 0 92.000000 91.000000"
 preserveAspectRatio="xMidYMid meet">
<metadata>
Created by potrace 1.10, written by Peter Selinger 2001-2011
</metadata>
<g transform="translate(0.000000,91.000000) scale(0.100000,-0.100000)"
fill="#000000" stroke="none">
<path d="M370 841 c-162 -53 -253 -205 -220 -367 21 -102 99 -232 197 -326 58
-57 92 -72 131 -57 58 22 179 163 235 274 89 179 36 368 -128 452 -53 28 -166
40 -215 24z m206 -97 c30 -18 60 -48 79 -79 26 -43 30 -57 30 -125 0 -68 -4
-84 -38 -153 -27 -55 -61 -101 -118 -159 l-79 -83 -79 83 c-202 208 -214 433
-29 526 74 38 163 34 234 -10z"/>
<path d="M375 681 c-46 -28 -67 -66 -67 -123 0 -84 58 -142 142 -142 84 0 142
58 142 142 0 86 -57 142 -144 142 -24 0 -56 -8 -73 -19z m124 -67 c22 -18 31
-35 31 -55 0 -40 -40 -79 -80 -79 -39 0 -80 39 -80 75 0 32 49 85 78 85 11 0
34 -12 51 -26z"/>
</g>
</svg>
