<?xml version="1.0" standalone="no"?>
<!DOCTYPE svg PUBLIC "-//W3C//DTD SVG 20010904//EN"
 "http://www.w3.org/TR/2001/REC-SVG-20010904/DTD/svg10.dtd">
<svg version="1.0" xmlns="http://www.w3.org/2000/svg"
 width="77.000000pt" height="98.000000pt" viewBox="0 0 77.000000 98.000000"
 preserveAspectRatio="xMidYMid meet">
<metadata>
Created by potrace 1.10, written by Peter Selinger 2001-2011
</metadata>
<g transform="translate(0.000000,98.000000) scale(0.100000,-0.100000)"
fill="#494FC9" stroke="none">
<path d="M119 864 c-21 -25 1 -49 45 -49 36 0 37 -1 31 -30 -26 -130 -13 -213
45 -275 l28 -30 -28 -30 c-58 -62 -71 -145 -45 -275 6 -29 5 -30 -31 -30 -44
0 -66 -24 -45 -49 12 -14 47 -16 261 -16 214 0 249 2 261 16 21 25 -1 49 -45
49 -36 0 -37 1 -31 30 26 130 13 213 -45 275 l-28 30 28 30 c58 62 71 145 45
275 -6 29 -5 30 31 30 44 0 66 24 45 49 -12 14 -47 16 -261 16 -214 0 -249 -2
-261 -16z m141 -35 c0 -16 -31 -22 -43 -10 -9 9 -9 14 2 20 16 10 41 4 41 -10z
m288 2 c-2 -9 -12 -16 -23 -16 -11 0 -21 7 -23 16 -2 10 5 15 23 15 18 0 25
-5 23 -15z m-49 -65 c35 -142 -16 -251 -119 -251 -103 0 -154 109 -119 251
l11 44 108 0 108 0 11 -44z m-159 -281 c8 -10 3 -15 -20 -23 -29 -11 -30 -10
-30 18 0 23 4 27 20 23 10 -3 24 -11 30 -18z m132 -4 c-4 -30 -19 -32 -51 -7
-11 8 -8 13 15 23 40 17 41 17 36 -16z m-25 -57 c59 -38 78 -125 52 -230 l-11
-44 -108 0 -108 0 -11 44 c-19 75 -14 148 12 187 43 65 115 83 174 43z m-189
-297 c2 -11 -3 -17 -17 -17 -23 0 -35 15 -26 31 10 15 39 6 43 -14z m290 0 c3
-12 -3 -17 -22 -17 -25 0 -35 18 -19 34 12 12 38 2 41 -17z"/>
</g>
</svg>
