<?xml version="1.0" standalone="no"?>
<!DOCTYPE svg PUBLIC "-//W3C//DTD SVG 20010904//EN"
 "http://www.w3.org/TR/2001/REC-SVG-20010904/DTD/svg10.dtd">
<svg version="1.0" xmlns="http://www.w3.org/2000/svg"
 width="164.000000pt" height="157.000000pt" viewBox="0 0 164.000000 157.000000"
 preserveAspectRatio="xMidYMid meet">
<metadata>
Created by potrace 1.16, written by Peter Selinger 2001-2019
</metadata>
<g transform="translate(0.000000,157.000000) scale(0.100000,-0.100000)"
fill="#494FC9" stroke="none">
<path d="M183 1413 c-7 -2 -13 -17 -13 -31 0 -22 55 -81 300 -320 165 -162
300 -299 300 -306 0 -7 -135 -147 -301 -311 -258 -256 -300 -301 -297 -324 7
-61 32 -42 350 275 l309 309 303 -307 c166 -170 307 -308 313 -308 26 0 43 13
43 34 0 14 -94 115 -305 326 l-305 305 305 305 c210 210 305 312 305 326 0 20
-17 34 -40 34 -5 0 -146 -138 -314 -307 l-305 -308 -308 308 c-170 169 -313
307 -318 306 -6 0 -16 -3 -22 -6z"/>
</g>
</svg>
